<svg xmlns="http://www.w3.org/2000/svg" width="121.205" height="83.092" viewBox="0 0 121.205 83.092"><defs><style>.a{fill:#a50064;}</style></defs><path class="a" d="M87.778,1.8C59.515,4.061,31.818,30.063,29.557,58.89c-1.7,15.262,5.653,26,17.523,26S70.255,75.283,70.82,61.151C71.95,51.542,66.3,45.324,58.384,45.324c-5.653,0-11.305,2.826-15.262,5.087C48.21,23.845,69.689,9.148,89.473,6.322Zm60.482,0C121.127,4.061,92.865,30.628,90.039,59.456c-1.131,15.827,6.218,25.436,18.088,25.436,11.305,0,23.175-9.609,24.306-23.741.565-9.609-5.653-15.827-13-15.827a27.067,27.067,0,0,0-15.262,5.087,56.106,56.106,0,0,1,46.351-44.09Z" transform="translate(-29.314 -1.801)"/></svg>