<svg xmlns="http://www.w3.org/2000/svg" width="85.252" height="11.977" viewBox="0 0 85.252 11.977"><defs><style>.a{fill:#fff;}</style></defs><path class="a" d="M92.6,44.3a.992.992,0,0,0-1.3-.5,87.858,87.858,0,0,1-13.6,4.9,110.205,110.205,0,0,0-55.3,0A87.857,87.857,0,0,1,8.8,43.8.985.985,0,1,0,8,45.6a94.261,94.261,0,0,0,10.9,4.1A84.066,84.066,0,0,0,8,53.8a.985.985,0,1,0,.8,1.8,87.857,87.857,0,0,1,13.6-4.9A106.658,106.658,0,0,0,50,54.3a106.658,106.658,0,0,0,27.6-3.6,87.857,87.857,0,0,1,13.6,4.9.6.6,0,0,0,.4.1.961.961,0,0,0,.9-.6.992.992,0,0,0-.5-1.3,94.261,94.261,0,0,0-10.9-4.1A84.066,84.066,0,0,0,92,45.6.932.932,0,0,0,92.6,44.3ZM26.5,49.8a106.5,106.5,0,0,1,47,0A109.559,109.559,0,0,1,26.5,49.8Z" transform="translate(-7.424 -43.723)"/></svg>