<svg xmlns="http://www.w3.org/2000/svg" width="27.148" height="119.58" viewBox="0 0 27.148 119.58"><defs><style>.a{fill:#fff;}.b{fill:none;stroke:#fff;}</style></defs><g transform="translate(-946 -894.5)"><g transform="translate(940.834 979.113)"><g transform="translate(5.166 11.887)"><path class="a" d="M18.758,34.967h-.034a.651.651,0,0,1-.378-.121c-.363-.258-8.933-6.37-12.09-11.526L6.243,23.3a7.53,7.53,0,0,1,12.5-8.373,7.531,7.531,0,0,1,12.5,8.373l-.012.021C28.068,28.476,19.5,34.588,19.136,34.846A.648.648,0,0,1,18.758,34.967Z" transform="translate(-5.166 -11.887)"/></g></g><line class="b" y2="51" transform="translate(960.5 894.5)"/><line class="b" y2="15" transform="translate(960.5 950.5)"/><line class="b" y2="9" transform="translate(960.5 970.5)"/></g></svg>