<?xml version="1.0" encoding="UTF-8"?> <svg xmlns="http://www.w3.org/2000/svg" width="94.832" height="83.721" viewBox="0 0 94.832 83.721"><defs><style>.a{fill:#bfb7b0;fill-rule:evenodd;}</style></defs><path class="a" d="M383.158,907.807a26.548,26.548,0,0,0-37.513,0L343.457,910l-2.187-2.187a26.489,26.489,0,1,0-37.461,37.461l37.674,37.674a2.793,2.793,0,0,0,3.949,0l37.674-37.674A26.526,26.526,0,0,0,383.158,907.807Zm-75.4,33.515a20.9,20.9,0,1,1,29.563-29.563l4.162,4.162a2.793,2.793,0,0,0,3.949,0l4.162-4.162a20.9,20.9,0,1,1,29.563,29.563l-35.7,35.7Zm39.6,5.606,6.694,6.694A2.793,2.793,0,0,0,358,949.673l-6.694-6.694a12.563,12.563,0,1,0-3.949,3.949Zm-6.69-3.658a6.982,6.982,0,1,1,6.982-6.982A6.982,6.982,0,0,1,340.665,943.27Z" transform="translate(-296.045 -900.043)"></path></svg> 