<?xml version="1.0" encoding="UTF-8"?> <svg xmlns="http://www.w3.org/2000/svg" width="81.969" height="86.227" viewBox="0 0 81.969 86.227"><defs><style>.a{fill:none;stroke:#bfb7b0;stroke-miterlimit:10;stroke-width:5px;}.b{fill:#bfb7b0;}</style></defs><g transform="translate(0)"><path class="a" d="M22.2,19.941S3.154,19.261,5.875,44.432c0,0,2.041,30.613,18.368,29.253,0,0,13.606-2.721,8.164-14.967l-3.4-5.442s-2.721-4.082,2.041-8.164c0,0,10.2-6.8,8.164-16.327C39.21,28.785,35.808,18.581,22.2,19.941Z" transform="translate(-1.793 -6.335)"></path><circle class="b" cx="4.932" cy="4.932" r="4.932" transform="translate(27.885)"></circle><circle class="b" cx="3.912" cy="3.912" r="3.912" transform="translate(17.341 0.68)"></circle><circle class="b" cx="3.265" cy="3.265" r="3.265" transform="translate(9.824 3.367)"></circle><circle class="b" cx="2.742" cy="2.742" r="2.742" transform="translate(3.544 7.973)"></circle><circle class="b" cx="2.204" cy="2.204" r="2.204" transform="translate(0 13.953)"></circle><path class="a" d="M82.381,43.941s19.048-.68,16.327,24.491c0,0-2.041,30.613-18.368,29.253,0,0-13.606-2.721-8.164-14.967l3.4-5.442s2.721-4.082-2.041-8.164c0,0-10.2-6.8-8.164-16.327C65.373,52.785,68.775,42.581,82.381,43.941Z" transform="translate(-20.814 -14.008)"></path><circle class="b" cx="4.932" cy="4.932" r="4.932" transform="translate(44.219 16.327)"></circle><circle class="b" cx="3.912" cy="3.912" r="3.912" transform="translate(56.805 17.007)"></circle><circle class="b" cx="3.265" cy="3.265" r="3.265" transform="translate(65.615 19.695)"></circle><circle class="b" cx="2.742" cy="2.742" r="2.742" transform="translate(72.942 24.3)"></circle><circle class="b" cx="2.204" cy="2.204" r="2.204" transform="translate(77.561 30.28)"></circle></g></svg> 