<?xml version="1.0" encoding="UTF-8"?> <svg xmlns="http://www.w3.org/2000/svg" width="85.721" height="85.721" viewBox="0 0 85.721 85.721"><defs><style>.a{fill:#bfb7b0;stroke:#bfb7b0;stroke-width:2px;}</style></defs><path class="a" d="M80.43,25.566a41.867,41.867,0,1,0-58.524,53.1,1.308,1.308,0,0,0,1.928-1.25L20.974,40.063a1.308,1.308,0,0,0-2.546-.313L14.586,51.276A1.653,1.653,0,1,1,11.45,50.23l3.792-11.362A6.974,6.974,0,0,1,19.26,34.6c2.03-.818,5.109-2.11,8.557-3.736,2.294,1.067,4.145,1.75,5.66,2.307a17.58,17.58,0,0,1,6.2,3.244l.093.08.091.053c-.212.182-.424.362-.633.538-2.121,1.793-4.315,3.648-4.315,6.935a7.11,7.11,0,0,0,2.63,5.521,11.764,11.764,0,0,0-7.092,10.8v4.936a3.47,3.47,0,0,0,3.466,3.466h1.544l.629,11.931a38.908,38.908,0,0,1-6.981-1.7,1.308,1.308,0,1,0-.85,2.474A41.589,41.589,0,0,0,37.3,83.473l.032.005.1.01.216.022q.3.03.6.056l.175.015q.357.029.715.051l.241.014c.205.012.411.023.616.032l.147.007c.247.01.493.017.74.023l.2,0c.259.006.515.009.77.009s.5,0,.745-.008l.236-.005q.267-.006.534-.016l.241-.008c.236-.01.472-.021.707-.035l.223-.014q.264-.016.527-.037l.267-.021q.285-.024.568-.051l.17-.016c.213-.021.426-.044.639-.069l.023,0a41.662,41.662,0,0,0,8.249-1.818,1.308,1.308,0,1,0-.82-2.485,38.99,38.99,0,0,1-6.194,1.494l.773-11.878h.72a4.228,4.228,0,0,0,4.223-4.223V60.235a11.648,11.648,0,0,0-7.13-10.726,7.107,7.107,0,0,0,2.588-5.487c0-2.208-1.381-4.537-4.1-6.923-.328-.287-.655-.558-.972-.808,3.932-3.5,6.653-5.543,12.371-6.524a18.377,18.377,0,0,1,7.388,2.563,15.175,15.175,0,0,1,4.782,5.685l3.41,9.277,0,.012a1.836,1.836,0,0,1-3.195,1.741L64.7,37.976a1.308,1.308,0,0,0-2.451.917l3.123,8.352a1.3,1.3,0,0,0,.086.482l.7,1.823a4.483,4.483,0,0,0,.333.687l3.359,8.983H62.319a1.307,1.307,0,0,0-1.3,1.191l-1.54,17.211A1.308,1.308,0,0,0,61.391,78.9,41.854,41.854,0,0,0,83.721,41.86,41.6,41.6,0,0,0,80.43,25.566Zm-52.613,2.4c-2.406-1.22-6.01-3.614-6.01-7.01a5.721,5.721,0,1,1,11.443,0C33.251,22.56,32.533,25.574,27.818,27.963Zm23.26,32.273v4.292a1.609,1.609,0,0,1-1.607,1.607H47.526a1.307,1.307,0,0,0-1.305,1.223L45.336,80.95l-.147.013c-.161.013-.321.026-.481.037l-.31.022q-.264.016-.527.029l-.271.013c-.188.008-.378.014-.566.02l-.24.008c-.2.005-.4.007-.594.008l-.218,0c-.193,0-.385,0-.578,0l-.25,0c-.19,0-.379-.009-.569-.015l-.258-.008c-.184-.007-.368-.017-.552-.026-.091-.005-.183-.008-.275-.014-.176-.01-.352-.023-.527-.036l-.249-.018-.717-13.606A1.308,1.308,0,0,0,36.7,66.136H33.915a.85.85,0,0,1-.85-.85V60.35a9.08,9.08,0,0,1,8.975-9.119h.032a9.005,9.005,0,0,1,9.006,9ZM46.534,44.023a4.5,4.5,0,1,1-9.008,0c0-1.972,1.288-3.161,3.387-4.937.386-.327.784-.664,1.18-1.017C44.133,39.63,46.534,41.962,46.534,44.023Zm9.622-16.95a6.1,6.1,0,0,1-5.437-6.121,5.721,5.721,0,0,1,11.443,0,6.1,6.1,0,0,1-5.437,6.121l-.284.044ZM75.307,62.4a39.425,39.425,0,0,1-13,12.965l1.211-13.53h8.217a1.309,1.309,0,0,0,1.226-1.767l-2.866-7.663c.074,0,.147.006.22.006a4.461,4.461,0,0,0,4.168-6.026l-3.474-9.452-.045-.084c-2.543-4.686-5.321-7.233-9.931-8.7a8.543,8.543,0,0,0,3.75-7.2,8.338,8.338,0,1,0-16.675,0,8.581,8.581,0,0,0,2.168,5.817A8.676,8.676,0,0,0,51.924,28.2c-4.084,1.381-6.743,3.588-10.031,6.532-.275-.177-.484-.3-.6-.376a20.244,20.244,0,0,0-6.909-3.639c-1.093-.4-2.281-.84-3.657-1.422A13.716,13.716,0,0,0,33.59,26.82a8.846,8.846,0,0,0,2.276-5.866,8.338,8.338,0,1,0-16.675,0c0,3.149,2.012,6.068,5.721,8.377-2.657,1.211-4.99,2.185-6.628,2.845a9.589,9.589,0,0,0-5.523,5.866L8.969,49.4a4.269,4.269,0,1,0,8.1,2.7l1.792-5.375,2.175,28.4A39.242,39.242,0,1,1,75.307,62.4Z" transform="translate(1 1)"></path></svg> 